<?xml version="1.0" encoding="UTF-8"?>
<!-- 16KB Checker icon (JetBrains Marketplace-ready). Scalable SVG, no external assets. -->
<svg xmlns="http://www.w3.org/2000/svg" width="1024" height="1024" viewBox="0 0 1024 1024" role="img" aria-label="16KB Checker">
  <defs>
    <linearGradient id="bg" x1="0" y1="0" x2="1" y2="1">
      <stop offset="0" stop-color="#111827"/>
      <stop offset="1" stop-color="#0B1220"/>
    </linearGradient>
    <linearGradient id="accent" x1="0" y1="0" x2="1" y2="1">
      <stop offset="0" stop-color="#22C55E"/>
      <stop offset="1" stop-color="#14B8A6"/>
    </linearGradient>
    <filter id="softShadow" x="-20%" y="-20%" width="140%" height="140%">
      <feDropShadow dx="0" dy="18" stdDeviation="18" flood-color="#000000" flood-opacity="0.35"/>
    </filter>
  </defs>

  <rect x="64" y="64" width="896" height="896" rx="200" fill="url(#bg)"/>

  <g opacity="0.12">
    <path d="M170 330H854" stroke="#FFFFFF" stroke-width="10" stroke-linecap="round"/>
    <path d="M170 410H854" stroke="#FFFFFF" stroke-width="10" stroke-linecap="round"/>
    <path d="M170 490H854" stroke="#FFFFFF" stroke-width="10" stroke-linecap="round"/>
    <path d="M170 570H854" stroke="#FFFFFF" stroke-width="10" stroke-linecap="round"/>
  </g>

  <g filter="url(#softShadow)">
    <rect x="232" y="220" width="560" height="584" rx="72" fill="#0F172A" stroke="#1F2937" stroke-width="10"/>
    <g opacity="0.75" stroke="#334155" stroke-width="14" stroke-linecap="round">
      <path d="M310 206V160"/><path d="M410 206V160"/><path d="M510 206V160"/><path d="M610 206V160"/><path d="M710 206V160"/>
      <path d="M310 864V818"/><path d="M410 864V818"/><path d="M510 864V818"/><path d="M610 864V818"/><path d="M710 864V818"/>
      <path d="M218 300H172"/><path d="M218 410H172"/><path d="M218 520H172"/><path d="M218 630H172"/><path d="M218 740H172"/>
      <path d="M852 300H806"/><path d="M852 410H806"/><path d="M852 520H806"/><path d="M852 630H806"/><path d="M852 740H806"/>
    </g>
  </g>

  <g filter="url(#softShadow)">
    <rect x="290" y="304" width="444" height="172" rx="60" fill="url(#accent)"/>
    <text x="512" y="418" text-anchor="middle"
          font-family="Inter, ui-sans-serif, system-ui, -apple-system, Segoe UI, Roboto, Helvetica, Arial"
          font-size="96" font-weight="800" fill="#062014" letter-spacing="2">16KB</text>
  </g>

  <g filter="url(#softShadow)">
    <circle cx="512" cy="642" r="150" fill="#0B1220" stroke="url(#accent)" stroke-width="18"/>
    <path d="M445 642l46 52 96-118"
          fill="none" stroke="url(#accent)" stroke-width="26"
          stroke-linecap="round" stroke-linejoin="round"/>
  </g>

  <g opacity="0.9">
    <path d="M320 520h72" stroke="#64748B" stroke-width="14" stroke-linecap="round"/>
    <path d="M632 520h72" stroke="#64748B" stroke-width="14" stroke-linecap="round"/>
    <path d="M320 744h72" stroke="#64748B" stroke-width="14" stroke-linecap="round"/>
    <path d="M632 744h72" stroke="#64748B" stroke-width="14" stroke-linecap="round"/>
  </g>
</svg>
